<?xml version="1.0" encoding="UTF-8" standalone="no"?>
<svg width="997px" height="118px" viewBox="0 0 997 118" version="1.1" xmlns="http://www.w3.org/2000/svg" xmlns:xlink="http://www.w3.org/1999/xlink" xmlns:sketch="http://www.bohemiancoding.com/sketch/ns">
    <!-- Generator: Sketch 3.3.3 (12081) - http://www.bohemiancoding.com/sketch -->
    <title>Logo</title>
    <desc>Created with Sketch.</desc>
    <defs></defs>
    <g id="Page-1" stroke="none" stroke-width="1" fill="none" fill-rule="evenodd" sketch:type="MSPage">
        <g id="Logo" sketch:type="MSArtboardGroup">
            <g id="REFUGEWE-+-REFUGEWE-Copy" sketch:type="MSLayerGroup" transform="translate(5.000000, 4.000000)">
                <path d="M15.4503009,108 L0.76068042,108 L0.76068042,2.94695654 L34.4429415,2.94695654 C39.4878869,2.94695654 44.2854591,3.46628137 48.835802,4.50494659 C53.3861449,5.54361182 57.3676352,7.20050531 60.7803924,9.47567676 C64.1931496,11.7508482 66.8886927,14.7431484 68.8671027,18.4526671 C70.8455126,22.1621857 71.8347028,26.6877306 71.8347028,32.0294375 C71.8347028,39.7452363 69.4606464,45.9771342 64.7124625,50.7253181 C59.9642786,55.473502 53.8312998,58.4905319 46.3133419,59.7764984 L75.6925829,108 L57.8869823,108 L31.1785814,61.2602985 L15.4503009,61.2602985 L15.4503009,108 Z M15.4503009,48.9447581 L32.3656215,48.9447581 C35.8278389,48.9447581 39.0427068,48.648001 42.0103218,48.054478 C44.9779367,47.460955 47.5745608,46.4964947 49.800272,45.1610679 C52.0259832,43.8256412 53.7817957,42.0945585 55.0677622,39.9677678 C56.3537287,37.8409771 56.9967023,35.1948934 56.9967023,32.0294375 C56.9967023,28.8639816 56.3537287,26.2178979 55.0677622,24.0911072 C53.7817957,21.9643165 52.0754427,20.2579635 49.948652,18.9719971 C47.8218613,17.6860306 45.3241562,16.7710297 42.4554618,16.226967 C39.5867674,15.6829042 36.5697374,15.410877 33.4042815,15.410877 L15.4503009,15.410877 L15.4503009,48.9447581 Z M134.555624,94.9425596 L189.456226,94.9425596 L189.456226,108 L119.866003,108 L119.866003,2.94695654 L187.230526,2.94695654 L187.230526,15.856017 L134.555624,15.856017 L134.555624,47.312578 L184.114546,47.312578 L184.114546,59.9248784 L134.555624,59.9248784 L134.555624,94.9425596 Z M251.732007,108 L237.042386,108 L237.042386,2.94695654 L302.626349,2.94695654 L302.626349,15.856017 L251.732007,15.856017 L251.732007,48.499618 L299.361988,48.499618 L299.361988,61.1119185 L251.732007,61.1119185 L251.732007,108 Z M389.38483,110.67084 C382.460396,110.67084 376.426336,109.508542 371.28247,107.18391 C366.138604,104.859278 361.885086,101.768059 358.521789,97.9101597 C355.158493,94.0522603 352.660787,89.6256344 351.028599,84.6301492 C349.396411,79.6346641 348.580329,74.4661456 348.580329,69.1244387 L348.580329,2.94695654 L363.26995,2.94695654 L363.26995,68.2341587 C363.26995,71.7952966 363.715085,75.3316514 364.60537,78.843329 C365.495654,82.3550067 366.95471,85.4956854 368.98258,88.2654594 C371.01045,91.0352333 373.681263,93.2609111 376.9951,94.9425596 C380.308937,96.624208 384.438806,97.4650197 389.38483,97.4650197 C394.231935,97.4650197 398.337074,96.624208 401.700371,94.9425596 C405.063668,93.2609111 407.759211,91.0352333 409.787081,88.2654594 C411.814951,85.4956854 413.274007,82.3550067 414.164291,78.843329 C415.054576,75.3316514 415.499711,71.7952966 415.499711,68.2341587 L415.499711,2.94695654 L430.189332,2.94695654 L430.189332,69.1244387 C430.189332,74.4661456 429.37325,79.6346641 427.741062,84.6301492 C426.108873,89.6256344 423.611168,94.0522603 420.247871,97.9101597 C416.884575,101.768059 412.631057,104.859278 407.487191,107.18391 C402.343325,109.508542 396.309265,110.67084 389.38483,110.67084 L389.38483,110.67084 Z M562.203715,24.6104373 C559.038259,21.1482198 555.007309,18.3784874 550.110745,16.301157 C545.21418,14.2238265 539.748905,13.1851769 533.714754,13.1851769 C527.581683,13.1851769 522.042219,14.2980158 517.096194,16.523727 C512.150169,18.7494382 507.946111,21.7911979 504.483893,25.6490973 C501.021676,29.5069967 498.350863,33.9830821 496.471373,39.0774877 C494.591884,44.1718934 493.652153,49.5877094 493.652153,55.3250983 C493.652153,61.1614076 494.591884,66.6514129 496.471373,71.7952788 C498.350863,76.9391447 501.021676,81.4152301 504.483893,85.2236693 C507.946111,89.0321084 512.199628,92.0244086 517.244574,94.2006595 C522.289519,96.3769105 527.927903,97.4650197 534.159894,97.4650197 C539.105919,97.4650197 543.656194,97.0198841 547.810855,96.1295996 C551.965516,95.2393151 555.57606,93.9533679 558.642595,92.2717195 L558.642595,63.0408585 L535.346934,63.0408585 L535.346934,50.5769381 L573.183836,50.5769381 L573.183836,101.47128 C567.644288,104.438895 561.610228,106.714032 555.081475,108.29676 C548.552722,109.879488 541.430553,110.67084 533.714754,110.67084 C525.504353,110.67084 517.961778,109.310704 511.086804,106.59039 C504.211829,103.870076 498.301418,100.061694 493.355393,95.1651296 C488.409368,90.2685649 484.551527,84.4323431 481.781753,77.656289 C479.011979,70.8802349 477.627112,63.4365791 477.627112,55.3250983 C477.627112,47.1146969 479.036708,39.6215816 481.855943,32.8455275 C484.675177,26.0694734 488.582478,20.2827111 493.577963,15.485067 C498.573448,10.6874228 504.483859,6.95323003 511.309374,4.28237659 C518.134888,1.61152314 525.553814,0.276116455 533.566374,0.276116455 C541.974617,0.276116455 549.467732,1.51260413 556.045945,3.98561658 C562.624158,6.45862902 568.089434,9.77241599 572.441936,13.9270769 L562.203715,24.6104373 Z M641.098057,94.9425596 L695.998659,94.9425596 L695.998659,108 L626.408436,108 L626.408436,2.94695654 L693.772959,2.94695654 L693.772959,15.856017 L641.098057,15.856017 L641.098057,47.312578 L690.656979,47.312578 L690.656979,59.9248784 L641.098057,59.9248784 L641.098057,94.9425596 Z" id="REFUGEWE" fill="#FFFFFF" sketch:type="MSShapeGroup"></path>
                <path d="M771.33188,86.6332793 L771.62864,86.6332793 L796.259721,2.94695654 L812.433142,2.94695654 L836.915842,86.6332793 L837.212602,86.6332793 L860.359883,2.94695654 L875.939784,2.94695654 L845.076743,108 L829.793602,108 L804.272241,23.5717772 L803.975481,23.5717772 L778.45412,108 L763.17098,108 L732.307939,2.94695654 L748.184599,2.94695654 L771.33188,86.6332793 Z M932.873885,94.9425596 L987.774486,94.9425596 L987.774486,108 L918.184264,108 L918.184264,2.94695654 L985.548786,2.94695654 L985.548786,15.856017 L932.873885,15.856017 L932.873885,47.312578 L982.432806,47.312578 L982.432806,59.9248784 L932.873885,59.9248784 L932.873885,94.9425596 Z" id="REFUGEWE-Copy" fill="#000000" sketch:type="MSShapeGroup"></path>
            </g>
        </g>
    </g>
</svg>